<svg width="1280" height="640" viewBox="0 0 1280 640" fill="none" xmlns="http://www.w3.org/2000/svg" role="img" aria-labelledby="title desc">
  <title id="title">Livebook GitHub social preview</title>
  <desc id="desc">Social preview image for the Livebook repository.</desc>
  <rect width="1280" height="640" fill="#101820"/>
  <rect x="64" y="64" width="1152" height="512" rx="36" fill="#F5F1E8"/>
  <rect x="90" y="90" width="1100" height="460" rx="26" fill="#101820"/>
  <path d="M640 90V550" stroke="#F5F1E8" stroke-width="2" opacity=".12"/>
  <g transform="translate(118 164)">
    <rect width="260" height="260" rx="58" fill="#F5F1E8"/>
    <path d="M66 76C66 66.059 74.059 58 84 58H122C134.15 58 144 67.85 144 80V195C144 186.716 137.284 180 129 180H84C74.059 180 66 171.941 66 162V76Z" fill="#101820"/>
    <path d="M194 76C194 66.059 185.941 58 176 58H138C125.85 58 116 67.85 116 80V195C116 186.716 122.716 180 131 180H176C185.941 180 194 171.941 194 162V76Z" fill="#101820"/>
    <path d="M130 80V194" stroke="#F5F1E8" stroke-width="10" stroke-linecap="round"/>
    <path d="M84 90H111" stroke="#1F6F68" stroke-width="10" stroke-linecap="round"/>
    <path d="M84 116H110" stroke="#1F6F68" stroke-width="10" stroke-linecap="round"/>
    <path d="M150 90H176" stroke="#1F6F68" stroke-width="10" stroke-linecap="round"/>
    <path d="M150 116H176" stroke="#1F6F68" stroke-width="10" stroke-linecap="round"/>
    <circle cx="178" cy="174" r="39" fill="#D7A441"/>
    <path d="M158 173L172 187L198 158" stroke="#101820" stroke-width="12" stroke-linecap="round" stroke-linejoin="round"/>
  </g>
  <g transform="translate(432 166)">
    <text x="0" y="82" fill="#F5F1E8" font-family="Inter, ui-sans-serif, system-ui, -apple-system, BlinkMacSystemFont, 'Segoe UI', sans-serif" font-size="86" font-weight="780" letter-spacing="0">Livebook</text>
    <text x="2" y="146" fill="#D7A441" font-family="Inter, ui-sans-serif, system-ui, -apple-system, BlinkMacSystemFont, 'Segoe UI', sans-serif" font-size="34" font-weight="650" letter-spacing="0">AI-assisted legal playbooks</text>
    <text x="2" y="208" fill="#F5F1E8" opacity=".9" font-family="Inter, ui-sans-serif, system-ui, -apple-system, BlinkMacSystemFont, 'Segoe UI', sans-serif" font-size="29" font-weight="430" letter-spacing="0">Review, confirm, and undo contract guidance across</text>
    <text x="2" y="248" fill="#F5F1E8" opacity=".9" font-family="Inter, ui-sans-serif, system-ui, -apple-system, BlinkMacSystemFont, 'Segoe UI', sans-serif" font-size="29" font-weight="430" letter-spacing="0">playbooks, negotiations, and Microsoft Word.</text>
  </g>
  <g transform="translate(432 470)">
    <rect width="176" height="44" rx="22" fill="#1F6F68"/>
    <text x="88" y="29" text-anchor="middle" fill="#F5F1E8" font-family="Inter, ui-sans-serif, system-ui, -apple-system, BlinkMacSystemFont, 'Segoe UI', sans-serif" font-size="18" font-weight="700" letter-spacing="0">Rust backend</text>
    <rect x="194" width="150" height="44" rx="22" fill="#D7A441"/>
    <text x="269" y="29" text-anchor="middle" fill="#101820" font-family="Inter, ui-sans-serif, system-ui, -apple-system, BlinkMacSystemFont, 'Segoe UI', sans-serif" font-size="18" font-weight="750" letter-spacing="0">Next.js UI</text>
    <rect x="362" width="155" height="44" rx="22" fill="#F5F1E8"/>
    <text x="439" y="29" text-anchor="middle" fill="#101820" font-family="Inter, ui-sans-serif, system-ui, -apple-system, BlinkMacSystemFont, 'Segoe UI', sans-serif" font-size="18" font-weight="750" letter-spacing="0">Word add-in</text>
  </g>
</svg>
